<?xml version="1.0" encoding="iso-8859-1"?>
<!DOCTYPE svg PUBLIC "-//W3C//DTD SVG 1.1//EN" "http://www.w3.org/Graphics/SVG/1.1/DTD/svg11.dtd">
<svg fill="#fff" height="800px" width="800px" version="1.1" id="Capa_1" xmlns="http://www.w3.org/2000/svg" xmlns:xlink="http://www.w3.org/1999/xlink" 
	 viewBox="0 0 297 297" xml:space="preserve">
<g>
	<path d="M113.579,111.963c2.664,0.912,5.514,1.425,8.487,1.425c14.562,0,26.379-11.888,26.379-26.553
		c0-3.035-0.521-5.944-1.456-8.662C128.875,78.948,114.291,93.688,113.579,111.963z"/>
	<path d="M120.636,3.493c7.834,6.081,17.601,9.626,27.853,9.626c10.253,0,20.02-3.545,27.853-9.626
		C167.428,1.215,158.098,0,148.488,0C138.88,0,129.549,1.215,120.636,3.493z"/>
	<path d="M261.405,113.336c0-45.995-27.439-85.674-66.749-103.422c-11.684,12.69-28.398,20.406-46.168,20.406
		s-34.484-7.716-46.168-20.406c-39.31,17.748-66.748,57.427-66.748,103.422c0,62.492,50.653,113.334,112.916,113.334
		S261.405,175.828,261.405,113.336z M96.344,113.36c0-28.907,23.392-52.426,52.144-52.426c28.754,0,52.146,23.519,52.146,52.426
		c0,28.91-23.393,52.431-52.146,52.431C119.736,165.791,96.344,142.27,96.344,113.36z"/>
	<path d="M280.947,278.255c-19.358-19.36-39.537-39.587-57.895-58.007c-21.131,14.877-46.847,23.622-74.564,23.622
		c-27.719,0-53.436-8.747-74.567-23.626c-19.021,19.088-39.615,39.735-58.284,58.405c-3.074,3.073-3.993,7.698-2.329,11.715
		c1.664,4.017,5.583,6.636,9.932,6.636h250.5c0.006-0.001,0.012-0.001,0.022,0c5.936,0,10.75-4.814,10.75-10.75
		C284.512,283.075,283.135,280.222,280.947,278.255z"/>
</g>
</svg>